<svg xmlns="http://www.w3.org/2000/svg" width="32" height="32" viewBox="0 0 32 32"><path stroke="#449FDB" d="M0 0"/><path d="M23.44 13.62C19.792 5.77 17.896 2.788 11.934 2.913c-2.123.043-1.613-1.538-3.232-.938-1.618.598-.23 1.477-1.885 2.835C2.174 8.62 2.6 12.146 4.755 20.552c.91 3.54-2.187 3.714-.963 7.146.894 2.5 7.486 3.55 14.442.967 6.955-2.58 11.344-7.7 10.45-10.205-1.224-3.43-3.706-1.536-5.243-4.842zm-5.962 12.934c-6.21 2.304-11.315.95-11.53.347-.372-1.037 2.004-4.505 9.105-7.14s11.064-1.658 11.478-.498c.246.685-2.84 4.986-9.052 7.29zm-1.995-5.59c-3.248 1.204-5.504 2.58-6.965 3.823 1.03.934 2.954 1.162 4.874.45 2.443-.907 3.944-2.99 3.35-4.648-.006-.022-.018-.04-.026-.06-.4.13-.81.275-1.234.433z" fill="#93920f"/></svg>