<svg xmlns="http://www.w3.org/2000/svg" width="32" height="32" viewBox="0 0 32 32"><path stroke="#449FDB" d="M0 0"/><path d="M27.557 11.246C25.024 5.35 20.947.86 18.883 1.7 15.38 3.124 20.97 9.962 3.77 16.954c-1.487.603-1.863 3.02-1.24 4.466.62 1.445 2.652 2.883 4.138 2.28.256-.104 1.202-.408 1.202-.408 1.06 1.424 2.17.58 2.566 1.485.474 1.088 1.502 3.45 1.85 4.254.353.804 1.147 1.55 1.723 1.33.572-.218 2.53-.964 3.277-1.247s.928-.952.7-1.478c-.247-.566-1.26-.733-1.547-1.395-.29-.662-1.232-2.782-1.502-3.45-.368-.91.414-1.65 1.552-1.767 7.83-.816 9.294 4.02 11.96 2.936 2.058-.843 1.638-6.817-.894-12.713zm-.882 9.564c-.458.186-3.54-2.243-5.51-6.827-1.967-4.582-1.72-8.77-1.263-8.957.458-.187 3.464 2.746 5.434 7.328 1.966 4.58 1.797 8.27 1.34 8.456z"/></svg>