<svg xmlns="http://www.w3.org/2000/svg" width="32" height="32" viewBox="0 0 32 32"><path stroke="#449FDB" d="M0 0"/><path d="M26.5 27h-3c-.276 0-.5-.224-.5-.5s.224-.5.5-.5H26v-2.5c0-.276.224-.5.5-.5.275 0 .5.224.5.5v3c0 .276-.225.5-.5.5zm0-6c-.276 0-.5-.224-.5-.5v-3c0-.276.224-.5.5-.5.275 0 .5.224.5.5v3c0 .276-.225.5-.5.5zm0-6c-.276 0-.5-.224-.5-.5v-3c0-.276.224-.5.5-.5.275 0 .5.224.5.5v3c0 .276-.225.5-.5.5zm0-6c-.276 0-.5-.224-.5-.5V6h-2.5c-.276 0-.5-.224-.5-.5s.224-.5.5-.5h3c.275 0 .5.224.5.5v3c0 .276-.225.5-.5.5zm-6 18h-3c-.276 0-.5-.224-.5-.5s.224-.5.5-.5h3c.275 0 .5.224.5.5s-.225.5-.5.5zm0-21h-3c-.276 0-.5-.224-.5-.5s.224-.5.5-.5h3c.275 0 .5.224.5.5s-.225.5-.5.5zm-.562 9c.552 0 1 .447 1 1 0 .552-.448 1-1 1h-3v3c0 .552-.448 1-1 1-.553 0-1-.448-1-1v-3h-3c-.552 0-1-.448-1-1 0-.553.447-1 1-1h3v-3c0-.553.447-1 1-1 .552 0 1 .447 1 1v3h3zM14.5 6h-3c-.276 0-.5-.224-.5-.5s.224-.5.5-.5h3c.275 0 .5.224.5.5s-.225.5-.5.5zm-6 21h-3c-.276 0-.5-.224-.5-.5v-3c0-.276.224-.5.5-.5s.5.224.5.5V26h2.5c.276 0 .5.224.5.5s-.224.5-.5.5zm0-21H6v2.5c0 .276-.224.5-.5.5S5 8.776 5 8.5v-3c0-.276.224-.5.5-.5h3c.276 0 .5.224.5.5s-.224.5-.5.5zm-3 5c.276 0 .5.224.5.5v3c0 .276-.224.5-.5.5s-.5-.224-.5-.5v-3c0-.276.224-.5.5-.5zm0 6c.276 0 .5.224.5.5v3c0 .276-.224.5-.5.5s-.5-.224-.5-.5v-3c0-.276.224-.5.5-.5zm6 9h3c.275 0 .5.224.5.5s-.225.5-.5.5h-3c-.276 0-.5-.224-.5-.5s.224-.5.5-.5z"/></svg>