<svg xmlns="http://www.w3.org/2000/svg" width="32" height="32" viewBox="0 0 32 32"><path stroke="#449FDB" d="M0 0"/><path d="M16 29C8.82 29 3 23.18 3 16S8.82 3 16 3s13 5.82 13 13-5.82 13-13 13zm5.96-16.79c.245-.245.245-.642 0-.886l-1.327-1.327c-.244-.244-.64-.244-.885 0l-3.76 3.76-3.762-3.76c-.244-.244-.64-.244-.885 0l-1.327 1.327c-.244.244-.244.64 0 .885l3.762 3.76-3.762 3.76c-.244.245-.244.642 0 .886l1.328 1.328c.245.244.642.244.886 0l3.76-3.762 3.762 3.762c.244.244.64.244.885 0l1.328-1.328c.245-.244.245-.64 0-.885l-3.76-3.76 3.76-3.76z" fill="#fff"/></svg>