<?xml version="1.0" encoding="utf-8"?>
<!-- Generated by IcoMoon.io -->
<!DOCTYPE svg PUBLIC "-//W3C//DTD SVG 1.1//EN" "http://www.w3.org/Graphics/SVG/1.1/DTD/svg11.dtd">
<svg version="1.1" xmlns="http://www.w3.org/2000/svg" xmlns:xlink="http://www.w3.org/1999/xlink" width="32" height="32" viewBox="0 0 32 32">
<g id="icomoon-ignore">
	<line stroke-width="1" x1="" y1="" x2="" y2="" stroke="#449FDB" opacity=""></line>
</g>
	<path d="M11.264 30.080c-0.384-1.28-0.576-2.24-1.024-3.136-0.704-1.472-1.088-3.072-1.152-4.608-0.256-3.328-0.96-6.592-2.048-9.728-0.704-2.048-2.048-4.736-0.512-6.080 1.408-1.216 2.816 0.512 3.136 2.112 0.448 2.048 1.216 3.904 1.6 5.952 0.128 0.768 0.32 1.472 0.512 2.432 0.128 0.896 0.064 1.984 0.448 2.752 0.448 0.96 0.576 2.176 1.856 2.624 1.472 0.512 1.472 0.576 0.96 1.92-0.064 0.192-0.32 0.384-0.256 0.512 0.064 0.256 0.192 0.64 0.384 0.704 0.256 0.064 0.768-0.128 0.768-0.256 0.192-2.624 2.048-3.264 4.224-3.584 0.128 0 0.384-0.512 0.32-0.768-0.064-0.192-0.384-0.384-0.64-0.512-0.32-0.064-0.64-0.064-0.96 0-0.448 0.128-2.24 1.024-2.496 0.896-0.64-0.384-0.576-1.152-0.576-1.792 0-0.384 0.256-1.472 0.768-1.536 1.728-0.32 4.032-0.256 5.696 0.192 2.432 0.64 3.328 2.816 2.496 5.376-0.512 1.664-1.216 3.328-1.664 5.056-0.32 1.088-0.896 1.472-1.984 1.472-3.328-0.064-6.656 0-9.856 0z" fill="#000000"></path>
	<path d="M23.296 16.64c-0.256 0.448-1.216 0.192-1.792-0.064-0.384-0.192-1.088-0.32-0.64-1.536 1.088-2.816 1.536-5.888 2.752-8.704 0.128-0.256 0.32-0.96 0.448-1.216 0.256-0.64 1.216-0.832 1.728-0.64 0.832 0.384 0.704 1.408 0.448 2.176-0.896 3.2-1.536 7.552-2.944 9.984z" fill="#000000"></path>
	<path d="M14.784 21.504c-1.6 0.384-2.048-5.44-1.984-8.128 0-0.448 0.768-1.152 1.152-1.152 0.448 0 1.152 0.128 1.28 1.088 0.192 1.088 0.512 2.752 0.832 3.968 0.064 0.128-0.32 0.64-0.384 0.768-1.024 0.96 0.576 3.136-0.896 3.456z" fill="#000000"></path>
	<path d="M19.2 16.448c-0.704 0.896-2.048 0.832-2.24-0.96-0.064-0.448 0.064-1.024-0.064-1.536-0.128-0.384-0.192-1.344-0.192-1.6 0.128-0.64 0.704-0.896 1.344-0.896 0.576 0 1.024 0.832 1.088 1.28 0.192 1.28 0.832 2.816 0.064 3.712z" fill="#000000"></path>
</svg>
