<?xml version="1.0" encoding="utf-8"?>
<!-- Generated by IcoMoon.io -->
<!DOCTYPE svg PUBLIC "-//W3C//DTD SVG 1.1//EN" "http://www.w3.org/Graphics/SVG/1.1/DTD/svg11.dtd">
<svg version="1.1" xmlns="http://www.w3.org/2000/svg" xmlns:xlink="http://www.w3.org/1999/xlink" width="32" height="32" viewBox="0 0 32 32">
<g id="icomoon-ignore">
	<line stroke-width="1" x1="" y1="" x2="" y2="" stroke="#449FDB" opacity=""></line>
</g>
	<path d="M23.424 17.024c0 0-2.944-3.008-6.976-3.008-3.968 0-7.872 3.008-7.872 3.008l-2.176-0.96v2.688c0.32 0.128 0.576 0.448 0.576 0.832s-0.256 0.704-0.64 0.832l0.64 1.792h-1.856l0.64-1.856c-0.32-0.128-0.512-0.448-0.512-0.832s0.192-0.64 0.512-0.768v-3.008l-3.2-1.344 14.080-6.336 12.928 6.4-6.144 2.56zM16.32 15.552c4.096 0 6.080 2.176 6.080 2.176v4.48c0 0-2.048 1.664-6.4 1.664s-5.76-1.664-5.76-1.664v-4.48c0-0.064 1.984-2.176 6.080-2.176zM16.192 22.848c2.816 0 5.12-0.576 5.12-1.28s-2.304-1.28-5.12-1.28-5.12 0.576-5.12 1.28 2.304 1.28 5.12 1.28z" fill="#7C7C7C"></path>
</svg>
