<svg xmlns="http://www.w3.org/2000/svg" width="32" height="32" viewBox="0 0 32 32"><path stroke="#449FDB" d="M0 0"/><path d="M23.424 17.024s-2.944-3.008-6.976-3.008c-3.968 0-7.872 3.008-7.872 3.008l-2.176-.96v2.688c.32.128.576.448.576.832s-.256.704-.64.832l.64 1.792H5.12l.64-1.856c-.32-.128-.512-.448-.512-.832s.192-.64.512-.768v-3.008L2.56 14.4l14.08-6.336 12.928 6.4-6.144 2.56zm-7.104-1.472c4.096 0 6.08 2.176 6.08 2.176v4.48s-2.048 1.664-6.4 1.664-5.76-1.664-5.76-1.664v-4.48c0-.064 1.984-2.176 6.08-2.176zm-.128 7.296c2.816 0 5.12-.576 5.12-1.28s-2.304-1.28-5.12-1.28-5.12.576-5.12 1.28 2.304 1.28 5.12 1.28z" fill="#7C7C7C"/></svg>