<?xml version="1.0" encoding="utf-8"?>
<!-- Generated by IcoMoon.io -->
<!DOCTYPE svg PUBLIC "-//W3C//DTD SVG 1.1//EN" "http://www.w3.org/Graphics/SVG/1.1/DTD/svg11.dtd">
<svg version="1.1" xmlns="http://www.w3.org/2000/svg" xmlns:xlink="http://www.w3.org/1999/xlink" width="32" height="32" viewBox="0 0 32 32">
<g id="icomoon-ignore">
  <line stroke-width="1" x1="" y1="" x2="" y2="" stroke="#227178" opacity=""></line>
</g>
  <path d="M16.261 1.917c-7.782 0-14.054 6.33-14.054 14.113s6.272 14.113 14.054 14.113c7.782 0 14.113-6.33 14.113-14.113s-6.33-14.113-14.113-14.113zM23.172 13.358l-1.162 3.136c-0.058 0.058-0.058 0.232 0 0.29l1.162 3.020c0.058 0.058 0.116 0.174 0.174 0.232l0.058 0.058c0.058 0.058 0.058 0.116-0.058 0.116h-1.278c-0.116 0-0.174-0.058-0.232-0.174l-0.697-1.858c-0.058-0.058-0.058-0.058-0.116 0l-0.697 1.858c-0.058 0.058-0.116 0.174-0.232 0.174h-0.929c-0.116 0-0.116-0.058-0.116-0.174l1.22-3.31c0.058-0.058 0.058-0.232 0-0.29l-1.162-3.136c-0.058-0.058 0-0.174 0.116-0.174h1.103c0.116 0 0.174 0.058 0.232 0.174l0.581 1.742c0 0.058 0.058 0.058 0.116 0l0.581-1.742c0-0.058 0.116-0.174 0.232-0.174h1.103c0 0.058 0.058 0.174 0 0.232zM10.802 6.563h11.034c0.174 0 0.348 0.174 0.348 0.348l-0.116 1.975c0 0.174-0.174 0.348-0.348 0.348h-3.717c-0.174 0-0.348 0.174-0.348 0.348v12.254c0 0.174 0.058 0.523 0.116 0.697l0.232 0.523c0.058 0.174 0 0.348-0.232 0.348h-3.194c-0.174 0-0.29-0.174-0.232-0.348l0.232-0.523c0.058-0.174 0.116-0.465 0.116-0.697v-12.254c0-0.174-0.174-0.348-0.348-0.348h-3.427c-0.174 0-0.348-0.174-0.348-0.348l-0.116-1.975c0-0.174 0.174-0.348 0.348-0.348zM9.466 13.241h3.252c0.058 0 0.058 0.058 0.058 0.058v1.103c0 0.058-0.058 0.058-0.058 0.058h-1.684c-0.058 0-0.058 0.058-0.058 0.058v1.452c0 0.058 0.058 0.058 0.058 0.058h1.278c0.058 0 0.058 0.058 0.058 0.058v1.162c0 0.058-0.058 0.058-0.058 0.058h-1.278c-0.058 0-0.058 0.058-0.058 0.058v1.452c0 0.058 0.058 0.058 0.058 0.058h1.742c0.058 0 0.058 0 0.058 0.058v1.162c0 0.058-0.058 0.058-0.058 0.058h-3.136c-0.058 0-0.058-0.058-0.058-0.058v-6.563c0-0.058 0-0.116-0.058-0.116l-0.058-0.174c-0.058 0-0.058 0 0 0zM22.185 25.786c-1.742 1.103-3.833 1.684-5.924 1.684h-0.116c-2.091 0-4.181-0.581-5.924-1.684-1.8-1.103-3.252-2.788-4.181-4.704-0.987-1.916-1.336-4.123-1.045-6.214 0.174-1.045 0.465-2.091 0.871-3.020 0.232-0.465 0.465-0.929 0.755-1.394 0.407-0.581-0.232-1.568 0.232-1.742 0.581-0.29 1.916 0.581 1.916 1.568 0 0.174-0.116 0.348-0.174 0.465-0.929 1.278-1.452 2.788-1.568 4.298-0.116 0.871-0.058 1.742 0.116 2.555 0.116 0.871 0.407 1.684 0.755 2.439 0.755 1.568 1.916 2.904 3.427 3.775 1.452 0.929 3.136 1.394 4.82 1.394h0.058c1.684 0 3.368-0.465 4.82-1.394s2.672-2.265 3.427-3.775c0.348-0.755 0.639-1.626 0.755-2.439 0.116-0.871 0.174-1.742 0.116-2.555-0.174-1.51-0.697-3.078-1.626-4.298-0.116-0.174-0.174-0.29-0.174-0.465 0-0.813 1.162-1.917 1.916-1.568 0.465 0.174-0.116 1.22 0.29 1.742 0.29 0.465 0.523 0.871 0.755 1.394 0.465 0.929 0.755 1.975 0.929 3.020 0.29 2.091-0.058 4.298-0.987 6.214-0.987 1.916-2.439 3.543-4.24 4.704z" fill="#227178"></path>
</svg>
