<svg xmlns="http://www.w3.org/2000/svg" width="32" height="32" viewBox="0 0 32 32"><path stroke="#227178" d="M0 0"/><path d="M16.26 1.917c-7.78 0-14.053 6.33-14.053 14.113S8.48 30.143 16.26 30.143c7.783 0 14.114-6.33 14.114-14.113S24.044 1.917 16.26 1.917zm6.912 11.44l-1.162 3.137c-.058.058-.058.232 0 .29l1.162 3.02c.058.058.116.174.174.232l.058.058c.058.058.058.116-.058.116h-1.278c-.116 0-.174-.058-.232-.174l-.697-1.858c-.06-.058-.06-.058-.117 0l-.697 1.858c-.058.058-.116.174-.232.174h-.93c-.115 0-.115-.058-.115-.174l1.22-3.31c.057-.058.057-.232 0-.29L19.106 13.3c-.058-.058 0-.174.116-.174h1.103c.116 0 .174.058.232.174l.58 1.742c0 .058.06.058.117 0l.58-1.742c0-.058.117-.174.233-.174h1.103c0 .058.06.174 0 .232zm-12.37-6.794h11.034c.174 0 .348.174.348.348l-.116 1.976c0 .174-.174.348-.348.348h-3.717c-.174 0-.348.174-.348.348v12.254c0 .174.058.523.116.697l.233.523c.058.174 0 .348-.232.348h-3.193c-.174 0-.29-.174-.232-.348l.232-.523c.058-.174.116-.465.116-.697V9.582c0-.174-.174-.348-.348-.348h-3.427c-.174 0-.348-.174-.348-.348l-.116-1.975c0-.173.174-.347.348-.347zM9.466 13.24h3.252c.058 0 .058.06.058.06V14.4c0 .058-.058.058-.058.058h-1.684c-.058 0-.058.058-.058.058v1.452c0 .058.058.058.058.058h1.278c.058 0 .058.058.058.058v1.162c0 .058-.058.058-.058.058h-1.278c-.058 0-.058.058-.058.058v1.452c0 .058.058.058.058.058h1.742c.058 0 .058 0 .058.058v1.162c0 .058-.058.058-.058.058H9.64c-.058 0-.058-.058-.058-.058V13.53c0-.057 0-.115-.058-.115l-.058-.174c-.058 0-.058 0 0 0zm12.72 12.546c-1.743 1.103-3.834 1.684-5.925 1.684h-.115c-2.09 0-4.18-.58-5.924-1.684-1.8-1.103-3.25-2.788-4.18-4.704-.987-1.916-1.336-4.123-1.045-6.214.174-1.045.465-2.09.87-3.02.233-.465.466-.93.756-1.394.408-.58-.23-1.568.233-1.742.58-.29 1.916.58 1.916 1.568 0 .174-.117.348-.175.465-.93 1.278-1.452 2.788-1.568 4.298-.116.87-.058 1.742.116 2.555.116.87.407 1.684.755 2.44.755 1.567 1.916 2.903 3.427 3.774 1.452.93 3.136 1.394 4.82 1.394h.058c1.684 0 3.368-.465 4.82-1.394s2.672-2.265 3.427-3.775c.348-.755.64-1.626.755-2.44.116-.87.174-1.74.116-2.554-.173-1.51-.696-3.078-1.625-4.298-.116-.174-.174-.29-.174-.465 0-.813 1.163-1.917 1.917-1.568.465.174-.116 1.22.29 1.742.29.465.523.87.755 1.394.465.93.755 1.975.93 3.02.29 2.09-.06 4.298-.988 6.214-.987 1.916-2.44 3.543-4.24 4.704z" fill="#227178"/></svg>