<?xml version="1.0" encoding="utf-8"?>
<!-- Generated by IcoMoon.io -->
<!DOCTYPE svg PUBLIC "-//W3C//DTD SVG 1.1//EN" "http://www.w3.org/Graphics/SVG/1.1/DTD/svg11.dtd">
<svg version="1.1" xmlns="http://www.w3.org/2000/svg" xmlns:xlink="http://www.w3.org/1999/xlink" width="32" height="32" viewBox="0 0 32 32">
<g id="icomoon-ignore">
	<line stroke-width="1" x1="" y1="" x2="" y2="" stroke="#449FDB" opacity=""></line>
</g>
	<path d="M10.88 25.856v-0.64c-0.896-0.128-2.624-0.128-2.624-1.28 0-0.768 2.048-4.992 2.368-6.016h8.064c0.384 1.28 2.304 5.248 2.304 6.144 0 1.216-1.664 1.216-2.624 1.216v0.64h8.064v-0.64c-1.664-0.256-2.048-1.024-2.752-2.752l-7.232-16.704c-0.768 0.896-1.408 1.408-2.624 1.664l0.128 0.576-6.592 15.744c-0.32 0.832-1.216 1.344-2.112 1.408v0.64h5.632zM14.592 8.448l3.904 8.832h-7.68l3.776-8.832z" fill="#7C7C7C"></path>
</svg>
