<svg xmlns="http://www.w3.org/2000/svg" width="32" height="32" viewBox="0 0 32 32"><path stroke="#449FDB" d="M0 0"/><path d="M11.264 30.08c-.384-1.28-.576-2.24-1.024-3.136-.704-1.472-1.088-3.072-1.152-4.608-.256-3.328-.96-6.592-2.048-9.728-.704-2.048-2.048-4.736-.512-6.08 1.408-1.216 2.816.512 3.136 2.112.448 2.048 1.216 3.904 1.6 5.952.128.768.32 1.472.512 2.432.128.896.064 1.984.448 2.752.448.96.576 2.176 1.856 2.624 1.472.512 1.472.576.96 1.92-.064.192-.32.384-.256.512.064.256.192.64.384.704.256.064.768-.128.768-.256.192-2.624 2.048-3.264 4.224-3.584.128 0 .384-.512.32-.768-.064-.192-.384-.384-.64-.512-.32-.064-.64-.064-.96 0-.448.128-2.24 1.024-2.496.896-.64-.384-.576-1.152-.576-1.792 0-.384.256-1.472.768-1.536 1.728-.32 4.032-.256 5.696.192 2.432.64 3.328 2.816 2.496 5.376-.512 1.664-1.216 3.328-1.664 5.056-.32 1.088-.896 1.472-1.984 1.472-3.328-.064-6.656 0-9.856 0zM23.296 16.64c-.256.448-1.216.192-1.792-.064-.384-.192-1.088-.32-.64-1.536 1.088-2.816 1.536-5.888 2.752-8.704.128-.256.32-.96.448-1.216.256-.64 1.216-.832 1.728-.64.832.384.704 1.408.448 2.176-.896 3.2-1.536 7.552-2.944 9.984zM14.784 21.504c-1.6.384-2.048-5.44-1.984-8.128 0-.448.768-1.152 1.152-1.152.448 0 1.152.128 1.28 1.088.192 1.088.512 2.752.832 3.968.064.128-.32.64-.384.768-1.024.96.576 3.136-.896 3.456zM19.2 16.448c-.704.896-2.048.832-2.24-.96-.064-.448.064-1.024-.064-1.536-.128-.384-.192-1.344-.192-1.6.128-.64.704-.896 1.344-.896.576 0 1.024.832 1.088 1.28.192 1.28.832 2.816.064 3.712z" fill="#7C7C7C"/></svg>