<svg class="logo" xmlns="http://www.w3.org/2000/svg" viewBox="0 0 200 75" enable-background="new 0 0 200 75"><path fill="#231F20" d="M12.6 51.6c0 .2.2.4.4.4h4c.2 0 .4-.2.4-.4V30.9c0-.2.2-.4.4-.4h3.6c.2 0 .4-.2.4-.4v-3.6c0-.2-.2-.4-.4-.4H9.2c-.2 0-.4.2-.4.4v3.6c0 .2.2.4.4.4h3.1c.2 0 .4.2.4.4v20.7zM38.2 26.2c-.3 0-.5.3-.4.6l3.9 11.4c.1.3.1.8 0 1.1l-4.1 12c-.1.3.1.6.4.6h3.4c.3 0 .7-.3.8-.6l2.3-6.7c.1-.3.3-.3.4 0l2.1 6.7c.1.3.5.6.8.6h3.7c.3 0 .5-.3.4-.6l-4.2-12c-.1-.3-.1-.8 0-1.1l4-11.4c.1-.3-.1-.6-.4-.6h-3.7c-.3 0-.7.3-.8.6L45 33.2c-.1.3-.2.3-.3 0l-1.9-6.4c-.1-.3-.4-.6-.8-.6h-3.8zM35.3 51.9c.1 0 .2-.1.2-.2V48c0-.1-.1-.2-.2-.2h-6.4c-.1 0-.2-.1-.2-.2V41c0-.1.1-.2.2-.2h4.6c.1 0 .2-.1.2-.2v-3.8c0-.1-.1-.2-.2-.2h-4.6c-.1 0-.2-.1-.2-.2v-5.6c0-.1.1-.2.2-.2h6.3c.1 0 .2-.1.2-.2v-3.7c0-.1-.1-.2-.2-.2H24.3c-.1 0-.2.1-.2.2v25.2c0 .1.1.2.2.2h11zM59.3 42.6c-.1 0-.2-.1-.2-.2l1.2-6.7c0-.1.1-.1.1 0l1.1 6.7c0 .1-.1.2-.2.2h-2zM63 26.4c0-.1-.1-.2-.3-.2h-4.9c-.1 0-.3.1-.3.2l-4.3 25.2c0 .1.1.2.2.2h3.9c.1 0 .3-.1.3-.2l.9-4.5c0-.1.2-.2.3-.2h3.1c.1 0 .3.1.3.2l.7 4.5c0 .1.1.2.3.2h4.1c.1 0 .2-.1.2-.2L63 26.4zM69.3 42.9c.1-.1.3-.1.3-.1h3.7s.1 0 .2.1.1.3.1.3v3.6s.4 1.4 2 1.4c2.8 0 1.9-3.1 1.5-3.9 0 0-.3-1.1-4.1-4.7-2-1.9-3.7-4.3-3.7-7.1 0-3.3 1.5-6.7 6.4-6.7 5.3 0 6 5 6 5l.1 3.5s0 .3-.1.4c-.1.1-.3.1-.3.1h-3.7s-.1 0-.3-.1c-.1-.1-.1-.3-.1-.3v-2.7s-.1-1.8-1.7-1.8c-1.8 0-2.3 2.6-1.1 4.2 1.2 1.6 2.2 2.6 4.3 4.5 3.3 3.2 3.3 5.6 3.3 7.6 0 2.6-2.2 6-6.2 6-4.4 0-6.7-3.2-6.7-5.3 0-1.6-.1-3-.1-3.7.1-.1.1-.2.2-.3M178.3 42.9c.1-.1.3-.1.3-.1h3.7s.1 0 .2.1.1.3.1.3v3.6s.4 1.4 2 1.4c2.8 0 1.9-3.1 1.5-3.9 0 0-.3-1.1-4.1-4.7-2-1.9-3.7-4.3-3.7-7.1 0-3.3 1.5-6.7 6.4-6.7 5.3 0 6 5 6 5l.1 3.5s0 .3-.1.4c-.1.1-.3.1-.3.1h-3.7s-.1 0-.3-.1c-.1-.1-.1-.3-.1-.3v-2.7s-.1-1.8-1.7-1.8c-1.8 0-2.3 2.6-1.1 4.2 1.2 1.6 2.2 2.6 4.3 4.5 3.3 3.2 3.3 5.6 3.3 7.6 0 2.6-2.3 6-6.2 6-4.4 0-6.7-3.2-6.7-5.3 0-1.6-.1-3-.1-3.7.2-.1.2-.2.2-.3"/><path fill="#231F20" d="M148.5 26.2c-.3 0-.5.3-.4.6l3.9 11.4c.1.3.1.8 0 1.1l-4.1 12c-.1.3.1.6.4.6h3.4c.3 0 .7-.3.8-.6l2.3-6.7c.1-.3.3-.3.4 0l2.1 6.7c.1.3.5.6.8.6h3.7c.3 0 .5-.3.4-.6l-4.2-12c-.1-.3-.1-.8 0-1.1l4-11.4c.1-.3-.1-.6-.4-.6h-3.7c-.3 0-.7.3-.8.6l-1.8 6.4c-.1.3-.2.3-.3 0l-1.9-6.4c-.1-.3-.4-.6-.8-.6h-3.8zM145.4 51.9c.1 0 .2-.1.2-.2V48c0-.1-.1-.2-.2-.2h-6.5c-.1 0-.2-.1-.2-.2V41c0-.1.1-.2.2-.2h4.6c.1 0 .2-.1.2-.2v-3.8c0-.1-.1-.2-.2-.2h-4.6c-.1 0-.2-.1-.2-.2v-5.6c0-.1.1-.2.2-.2h6.3c.1 0 .2-.1.2-.2v-3.7c0-.1-.1-.2-.2-.2h-10.9c-.1 0-.2.1-.2.2v25.2c0 .1.1.2.2.2h11.1zM176 51.9c.1 0 .2-.1.2-.2V48c0-.1-.1-.2-.2-.2h-6.5c-.1 0-.2-.1-.2-.2V41c0-.1.1-.2.2-.2h4.6c.1 0 .2-.1.2-.2v-3.8c0-.1-.1-.2-.2-.2h-4.6c-.1 0-.2-.1-.2-.2v-5.6c0-.1.1-.2.2-.2h6.3c.1 0 .2-.1.2-.2v-3.7c0-.1-.1-.2-.2-.2h-10.9c-.1 0-.2.1-.2.2v25.2c0 .1.1.2.2.2H176z"/><path fill="#E47126" d="M115.1 49.8c-2.3 1.4-5 2.2-7.7 2.2h-.2c-2.7 0-5.4-.8-7.7-2.2-2.3-1.5-4.2-3.6-5.4-6.1-1.2-2.5-1.7-5.3-1.3-8 .2-1.3.6-2.6 1.2-3.9.3-.6.6-1.2 1-1.8.2-.2.1-.6.1-1-.1-.5-.1-1.1.4-1.3.6-.3 1.5 0 2.2.7.5.5.7 1 .7 1.6 0 .4-.2.6-.3.8-1.1 1.5-1.7 3.3-1.9 5.3-.1 1-.1 2.1.1 3.2.2 1 .5 2.1.9 3 .9 1.9 2.4 3.6 4.2 4.7 1.8 1.1 3.8 1.7 5.9 1.7h.1c2.1 0 4.2-.6 5.9-1.7 1.8-1.1 3.3-2.8 4.2-4.7.5-1 .8-2 .9-3 .2-1.1.2-2.1.1-3.2-.2-2-.9-3.8-2-5.3-.2-.2-.3-.5-.3-.8 0-.5.3-1.1.8-1.6.7-.7 1.5-.9 2.1-.7.5.2.5.8.4 1.3 0 .4-.1.8.1 1 .4.6.7 1.2 1 1.8.6 1.3 1 2.6 1.2 3.9.4 2.7-.1 5.5-1.3 8s-3 4.6-5.4 6.1M98.9 33.7h4.1s.1 0 .1.1v1.4s0 .1-.1.1h-2.1s-.1 0-.1.1v1.8s0 .1.1.1h1.6s.1 0 .1.1v1.5s0 .1-.1.1h-1.6s-.1 0-.1.1V41s0 .1.1.1h2.2s.1 0 .1.1v1.5s0 .1-.1.1h-4s-.1 0-.1-.1v-8.5l-.1-.5c-.1 0-.1 0 0 0m1.7-8.4h13.9c.2 0 .4.2.4.4l-.2 2.5c0 .2-.2.4-.5.4h-4.6c-.2 0-.4.2-.4.4v15.5c0 .2.1.6.2.9l.3.7c.1.2 0 .4-.3.4h-4c-.2 0-.4-.2-.3-.4l.3-.7c.1-.2.2-.6.2-.9V29.1c0-.2-.2-.4-.4-.4h-4.3c-.2 0-.5-.2-.5-.4l-.2-2.5c0-.3.2-.5.4-.5m15.6 8.6l-1.5 3.9v.4l1.5 3.8c0 .1.1.3.2.3l.1.1c.1.1.1.1 0 .1h-1.6c-.1 0-.2-.1-.3-.2l-.9-2.3c0-.1-.1-.1-.1 0l-.9 2.3c0 .1-.2.2-.3.2h-1.3c-.1 0-.2-.1-.1-.2l1.5-4.1v-.4l-1.4-3.9c0-.1 0-.2.1-.2h1.4c.1 0 .2.1.3.2l.7 2.2c0 .1.1.1.1 0l.7-2.2c0-.1.2-.2.3-.2h1.4c.1 0 .1 0 .1.2m-8.7-14.4c-9.8 0-17.8 8-17.8 17.8s8 17.8 17.8 17.8 17.8-8 17.8-17.8c0-9.9-8-17.8-17.8-17.8M107.5 56c-10.3 0-18.7-8.4-18.7-18.7 0-10.3 8.4-18.7 18.7-18.7 10.3 0 18.7 8.4 18.7 18.7 0 10.3-8.4 18.7-18.7 18.7m0-39c-11.1 0-20.2 9.1-20.2 20.2s9.1 20.2 20.2 20.2 20.2-9.1 20.2-20.2S118.6 17 107.5 17"/></svg>