<?xml version="1.0" encoding="utf-8"?>
<!-- Generated by IcoMoon.io -->
<!DOCTYPE svg PUBLIC "-//W3C//DTD SVG 1.1//EN" "http://www.w3.org/Graphics/SVG/1.1/DTD/svg11.dtd">
<svg version="1.1" xmlns="http://www.w3.org/2000/svg" xmlns:xlink="http://www.w3.org/1999/xlink" width="32" height="32" viewBox="0 0 32 32">
<g id="icomoon-ignore">
	<line stroke-width="1" x1="" y1="" x2="" y2="" stroke="#449FDB" opacity=""></line>
</g>
	<path d="M10.24 13.248c0 0-0.448-0.192-0.832-0.384-0.576-0.32-1.024-0.64-1.536-1.024-1.536-1.216-2.048-1.856-3.648-2.304-0.64-0.192-1.536-0.384-2.24-0.448-0.256-0.064-0.704-0.128-0.768-0.128-0.192-0.064-0.32-0.32-0.192-0.576 0.064-0.064 0.128-0.128 0.192-0.128 0.32-0.128 1.28-0.128 1.6-0.064 1.408 0.064 2.688 0.576 3.968 1.28 1.152 0.64 2.304 1.536 3.392 1.984 0.448 0.192 0.832 0.32 1.344 0.384 0.192 0 0.384 0 0.512 0 0.064 0 0.128-0.064 0.192-0.064 0.128 0 0.192 0 0.256 0 0.064-0.064 0.128-0.128 0.192-0.256 0.192-0.192 0.512-0.256 0.768-0.256 0.128 0 0.384 0.064 0.448 0 0.064 0 0.128-0.064 0.256-0.128s0.384-0.064 0.512-0.064c0.128 0 0.192 0.064 0.32 0.064s0.32-0.128 0.512-0.128c0.064 0 0.256 0 0.448 0.064 0 0 0.064 0 0.064 0.064 0.064 0 0.32-0.128 0.512-0.128 0.064 0 0.192 0 0.32 0.064s0.128 0.064 0.192 0.064 0.064 0 0.128-0.064c0.128-0.064 0.384-0.064 0.448 0 0.128 0.064 0.192 0.128 0.256 0.128s0.128 0 0.256-0.064c0.384-0.064 0.832 0.256 1.216 0.512 0.064 0 0.064 0.064 0.128 0.064s0.128 0 0.192 0 0.256 0.064 0.384 0.064c0.576 0.064 1.472-0.256 1.92-0.448 0.256-0.128 0.576-0.256 0.832-0.448 1.984-1.152 3.072-2.048 4.992-2.496 1.024-0.256 1.92-0.256 2.944-0.064 0.128 0 0.192 0.128 0.192 0.256 0 0.192-0.128 0.384-0.256 0.448-0.064 0-0.896 0.128-1.408 0.128-0.832 0.064-1.984 0.448-2.752 0.832-0.512 0.256-0.896 0.576-1.408 0.896-0.896 0.704-1.728 1.536-2.752 1.984-0.256 0.128-0.704 0.32-0.704 0.32s0.064 0.064 0.192 0.128c0.256 0.192 1.024 0.576 1.152 0.704 0.384 0.384-0.256 0.832-0.768 0.96-0.512 0.192-1.28 0.128-1.792-0.064-0.128-0.064-0.704-0.448-0.832-0.384s-0.064 0.32-0.128 0.576c0 0.256-0.192 0.768-0.256 0.96-0.192 0.448-0.768 1.536-1.088 2.24-0.32 0.64-0.32 1.152-0.128 1.92 0.064 0.192 0.128 0.448 0.192 0.576 0 0.064 0.064 0.064 0.064 0.128s-0.064 0.256-0.064 0.384c0 0.128 0.064 0.256 0.064 0.384 0 0.384-0.64 0.96-0.96 1.152-0.128 0.064-0.192 0.128-0.32 0.128-0.064 0-1.408 0-1.536 0-0.448-0.128-0.96-0.576-1.216-1.024-0.064-0.128-0.128-0.256-0.064-0.448 0-0.064 0-0.128 0-0.192 0-0.192-0.128-0.32-0.064-0.448 0-0.064 0.064-0.128 0.064-0.192 0.128-0.256 0.256-1.024 0.256-1.28 0-0.64-0.256-1.088-0.576-1.792-0.192-0.384-1.024-1.856-1.024-2.432 0-0.384 0.064-0.704-0.256-0.64-0.128 0.064-0.256 0.128-0.448 0.256-0.768 0.384-1.664 0.448-2.368 0.128-0.32-0.128-0.512-0.256-0.64-0.512-0.064-0.192 0-0.32 0.192-0.448 0.128-0.256 0.96-0.704 0.96-0.704z" fill="#000000"></path>
</svg>
