<svg xmlns="http://www.w3.org/2000/svg" width="32" height="32" viewBox="0 0 32 32"><path stroke="#449FDB" d="M0 0"/><path d="M10.24 13.248s-.448-.192-.832-.384c-.576-.32-1.024-.64-1.536-1.024-1.536-1.216-2.048-1.856-3.648-2.304-.64-.192-1.536-.384-2.24-.448-.256-.064-.704-.128-.768-.128-.192-.064-.32-.32-.192-.576.064-.064.128-.128.192-.128.32-.128 1.28-.128 1.6-.064 1.408.064 2.688.576 3.968 1.28 1.152.64 2.304 1.536 3.392 1.984.448.192.832.32 1.344.384h.512c.064 0 .128-.064.192-.064h.256c.064-.064.128-.128.192-.256.192-.192.512-.256.768-.256.128 0 .384.064.448 0 .064 0 .128-.064.256-.128s.384-.064.512-.064.192.064.32.064.32-.128.512-.128c.064 0 .256 0 .448.064 0 0 .064 0 .064.064.064 0 .32-.128.512-.128.064 0 .192 0 .32.064s.128.064.192.064.064 0 .128-.064c.128-.064.384-.064.448 0 .128.064.192.128.256.128s.128 0 .256-.064c.384-.064.832.256 1.216.512.064 0 .064.064.128.064h.192s.256.064.384.064c.576.064 1.472-.256 1.92-.448.256-.128.576-.256.832-.448 1.984-1.152 3.072-2.048 4.992-2.496 1.024-.256 1.92-.256 2.944-.064.128 0 .192.128.192.256 0 .192-.128.384-.256.448-.064 0-.896.128-1.408.128-.832.064-1.984.448-2.752.832-.512.256-.896.576-1.408.896-.896.704-1.728 1.536-2.752 1.984-.256.128-.704.32-.704.32s.064.064.192.128c.256.192 1.024.576 1.152.704.384.384-.256.832-.768.96-.512.192-1.28.128-1.792-.064-.128-.064-.704-.448-.832-.384s-.064.32-.128.576c0 .256-.192.768-.256.96-.192.448-.768 1.536-1.088 2.24-.32.64-.32 1.152-.128 1.92.064.192.128.448.192.576 0 .064.064.064.064.128s-.064.256-.064.384.064.256.064.384c0 .384-.64.96-.96 1.152-.128.064-.192.128-.32.128h-1.536c-.448-.128-.96-.576-1.216-1.024-.064-.128-.128-.256-.064-.448v-.192c0-.192-.128-.32-.064-.448 0-.064.064-.128.064-.192.128-.256.256-1.024.256-1.28 0-.64-.256-1.088-.576-1.792-.192-.384-1.024-1.856-1.024-2.432 0-.384.064-.704-.256-.64-.128.064-.256.128-.448.256-.768.384-1.664.448-2.368.128-.32-.128-.512-.256-.64-.512-.064-.192 0-.32.192-.448.128-.256.96-.704.96-.704z" fill="#7C7C7C"/></svg>