<svg xmlns="http://www.w3.org/2000/svg" viewBox="79 198 330 83" enable-background="new 79 198 330 83"><g><circle fill="#fff" cx="255.2" cy="239" r="32.3"/><path fill="#22242B" d="M97.6 262.6c0 .3.3.5.5.5h6.6c.3 0 .5-.3.5-.5v-34.2c0-.3.3-.5.5-.5h6.1c.3 0 .5-.3.5-.5v-5.9c0-.3-.3-.5-.5-.5h-20c-.3 0-.5.3-.5.5v5.9c0 .3.3.5.5.5H97c.3 0 .5.3.5.5v34.2zM139.9 220.7c-.5 0-.9.3-.7.9l6.6 18.9c.2.5.2 1.4 0 1.9l-6.9 19.8c-.2.5.2.9.7.9h5.6c.5 0 1.2-.3 1.4-.9l3.6-11.1c.2-.5.5-.5.7 0l3.5 11.1c.2.5.7.9 1.2.9h6.1c.5 0 .9-.3.7-.9l-6.9-20c-.2-.5-.2-1.4 0-1.9l6.6-18.9c.2-.5-.2-.9-.7-.9h-6.1c-.5 0-1 .3-1.2.9l-3 10.6c-.2.5-.3.5-.5 0l-3.1-10.6c-.2-.5-.7-.9-1.2-.9H140v.2zM135.1 263.3c.2 0 .3-.2.3-.3v-6.2c0-.2-.2-.3-.3-.3h-10.6c-.2 0-.3-.2-.3-.3v-10.8c0-.2.2-.3.3-.3h7.6c.2 0 .3-.2.3-.3v-6.3c0-.2-.2-.3-.3-.3h-7.6c-.2 0-.3-.2-.3-.3v-9.4c0-.2.2-.3.3-.3h10.4c.2 0 .3-.2.3-.3v-6.1c0-.2-.2-.3-.3-.3h-18.1c-.2 0-.3.2-.3.3v41.7c0 .2.2.3.3.3H135v-.5zM180.7 221.1c0-.2-.2-.3-.5-.3H172c-.2 0-.3.2-.5.3l-7.1 41.7c0 .2.2.3.3.3h6.4c.2 0 .3-.2.5-.3l1.4-7.5c0-.2.2-.3.5-.3h5.2c.2 0 .3.2.5.3l1.2 7.5c0 .2.2.3.5.3h6.8c.2 0 .3-.2.3-.3l-7.3-41.7zm-6 26.7c-.2 0-.3-.2-.3-.3l1.9-11.1c0-.2.2-.2.2 0l1.7 11.1c0 .2-.2.3-.3.3h-3.2zM191.1 248.3c.2-.2.5-.2.5-.2h6.1s.2 0 .3.2c.2.2.2.5.2.5v5.9s.7 2.3 3.3 2.3c4.5 0 3.1-5 2.6-6.4 0 0-.5-1.7-6.8-7.8-3.3-3.1-6.1-7.1-6.1-11.8 0-5.4 2.4-10.9 10.6-10.9 8.9 0 9.9 8.3 9.9 8.3l.2 5.9v.7c-.2.2-.5.2-.5.2h-6.2s-.2 0-.3-.2c-.2-.2-.2-.5-.2-.5V230s-.2-3-3-3c-3 0-3.6 4.3-1.7 6.9 2.1 2.8 3.6 4.3 7.1 7.5 5.4 5.2 5.4 9.2 5.4 12.5 0 4.2-3.6 9.9-10.2 9.9-7.3 0-10.9-5.2-10.9-8.9 0-2.6-.2-5-.2-6.1-.2-.1-.1-.3-.1-.5zM371.2 248.3c.2-.2.5-.2.5-.2h6.1s.2 0 .3.2c.2.2.2.5.2.5v5.9s.7 2.3 3.3 2.3c4.5 0 3.1-5 2.6-6.4 0 0-.5-1.7-6.8-7.8-3.3-3.1-6.1-7.1-6.1-11.8 0-5.4 2.4-10.9 10.6-10.9 8.9 0 9.9 8.3 9.9 8.3l.2 5.9v.7c-.2.2-.5.2-.5.2h-6.3s-.2 0-.3-.2c-.2-.2-.2-.5-.2-.5V230s-.2-3-2.8-3c-3 0-3.6 4.3-1.7 6.9 2.1 2.8 3.6 4.3 7.1 7.5 5.4 5.2 5.4 9.2 5.4 12.5 0 4.2-3.6 9.9-10.2 9.9-7.3 0-10.9-5.2-10.9-8.9 0-2.6-.2-5-.2-6.1-.4-.1-.2-.3-.2-.5z"/><g fill="#22242B"><path d="M321.9 220.7c-.5 0-.9.3-.7.9l6.6 18.9c.2.5.2 1.4 0 1.9l-6.8 20c-.2.5.2.9.7.9h5.6c.5 0 1.2-.3 1.4-.9l3.6-11.1c.2-.5.5-.5.7 0l3.5 11.1c.2.5.7.9 1.2.9h6.1c.5 0 .9-.3.7-.9l-6.9-20c-.2-.5-.2-1.4 0-1.9l6.6-18.9c.2-.5-.2-.9-.7-.9h-6.1c-.5 0-1 .3-1.2.9l-3 10.6c-.2.5-.3.5-.5 0l-3.1-10.6c-.2-.5-.7-.9-1.2-.9h-6.5zM316.7 263.3c.2 0 .3-.2.3-.3v-6.1c0-.2-.2-.3-.3-.3h-10.6c-.2 0-.3-.2-.3-.3v-10.8c0-.2.2-.3.3-.3h7.6c.2 0 .3-.2.3-.3v-6.3c0-.2-.2-.3-.3-.3h-7.6c-.2 0-.3-.2-.3-.3v-9.4c0-.2.2-.3.3-.3h10.4c.2 0 .3-.2.3-.3v-6.1c0-.2-.2-.3-.3-.3h-18.1c-.2 0-.3.2-.3.3v41.7c0 .2.2.3.3.3h18.2v-.6zM367.4 263.3c.2 0 .3-.2.3-.3v-6.1c0-.2-.2-.3-.3-.3h-10.6c-.2 0-.3-.2-.3-.3v-10.8c0-.2.2-.3.3-.3h7.6c.2 0 .3-.2.3-.3v-6.3c0-.2-.2-.3-.3-.3h-7.6c-.2 0-.3-.2-.3-.3v-9.4c0-.2.2-.3.3-.3h10.4c.2 0 .3-.2.3-.3v-6.1c0-.2-.2-.3-.3-.3H349c-.2 0-.3.2-.3.3v41.7c0 .2.2.3.3.3h18.4v-.6z"/></g><g fill="#CB6015"><path d="M255.2 209.6c-16.3 0-29.3 13.2-29.3 29.3 0 16.3 13.2 29.3 29.3 29.3s29.3-13.2 29.3-29.3c.2-16.2-13-29.3-29.3-29.3zm14.4 23.8l-2.4 6.4v.7l2.4 6.2c0 .2.2.3.3.5l.2.2c.2.2.2.2 0 .2h-2.8c-.2 0-.3-.2-.5-.3l-1.4-3.8c0-.2-.2-.2-.2 0l-1.4 3.8c0 .2-.3.3-.5.3h-2.1c-.2 0-.3-.2-.2-.3l2.4-6.8v-.7l-2.4-6.4c0-.2 0-.3.2-.3h2.3c.2 0 .3.2.5.3l1.2 3.6c0 .2.2.2.2 0l1.2-3.6c0-.2.2-.3.5-.3h2.3c.2 0 .4.1.2.3zm-25.7-14.2h22.9c.3 0 .7.3.7.7l-.3 4c0 .3-.3.7-.9.7h-7.6c-.3 0-.7.3-.7.7V251c0 .3.2 1 .3 1.4l.5 1c.2.3 0 .7-.5.7h-6.6c-.3 0-.7-.3-.5-.7l.5-1c.2-.3.3-1 .3-1.4v-25.5c0-.3-.3-.7-.7-.7h-7.1c-.3 0-.7-.3-.7-.7l-.2-4c-.2-.6.1-.9.6-.9zm-2.9 13.9h6.8s.2 0 .2.2v2.3s0 .2-.2.2h-3.5s-.2 0-.2.2v3s0 .2.2.2h2.6s.2 0 .2.2v2.4s0 .2-.2.2h-2.6s-.2 0-.2.2v3.1s0 .2.2.2h3.6s.2 0 .2.2v2.4s0 .2-.2.2h-6.6s-.2 0-.2-.2V234.2l-.1-1.1zm26.9 26.5c-3.8 2.4-8.2 3.6-12.7 3.6h-.2c-4.5 0-9-1.2-12.7-3.6-3.8-2.4-6.9-5.9-9-10.1-2.1-4.2-2.8-8.9-2.1-13.2.3-2.3.9-4.3 1.9-6.4.5-1 1-2.1 1.6-3 .3-.3.2-1 .2-1.7-.2-.9-.2-1.7.7-2.3.9-.5 2.4 0 3.6 1.2.7.9 1.2 1.7 1.2 2.6 0 .5-.3 1-.5 1.4-1.7 2.4-3 5.6-3.3 8.7-.2 1.7-.2 3.5.2 5.2.3 1.7.9 3.5 1.6 5 1.6 3.1 4 5.9 6.9 7.6 3 1.9 6.3 2.8 9.7 2.8h.2c3.5 0 6.9-1 9.7-2.8 3-1.7 5.4-4.5 6.9-7.6.7-1.6 1.2-3.3 1.6-5 .3-1.7.3-3.5.2-5.2-.3-3.3-1.6-6.3-3.3-8.7-.2-.3-.5-.9-.5-1.4 0-.9.5-1.9 1.2-2.6 1-1 2.4-1.6 3.5-1.2.9.3.7 1.4.7 2.3 0 .7-.2 1.2.2 1.7.7.9 1.2 1.9 1.6 3 1 2.1 1.6 4.2 1.9 6.4.7 4.3-.2 9-2.1 13.2-2 4.2-5.1 7.7-8.9 10.1zM255.2 205.6c-18.4 0-33.3 14.9-33.3 33.3s14.9 33.3 33.3 33.3 33.3-14.9 33.3-33.3-14.9-33.3-33.3-33.3zm0 64.3c-17 0-31.1-13.9-31.1-31.1 0-17 13.9-31.1 31.1-31.1 17 0 30.9 13.9 30.9 31.1.2 17.2-13.7 31.1-30.9 31.1z"/></g><path fill="#22242B" d="M397.6 226c-1.7 0-3.1-1.4-3.1-3.1 0-1.7 1.4-3.1 3.1-3.1s3.1 1.4 3.1 3.1c0 1.7-1.4 3.1-3.1 3.1zm0-5.8c-1.6 0-2.6 1.2-2.6 2.6 0 1.4 1 2.6 2.6 2.6s2.6-1.2 2.6-2.6c-.2-1.4-1.2-2.6-2.6-2.6zm1 4.2c-.3 0-.5-.2-.5-.5v-.3c0-.2-.2-.5-.5-.5h-.7v1.2h-.5v-3.1h1.4c.7 0 1 .3 1 .9 0 .3-.2.5-.5.7.3 0 .5.3.5.7v.3c0 .2 0 .2.2.2v.5l-.4-.1zm-.7-2.3c0-.2-.2-.3-.3-.3h-.7v.9h.5c.5 0 .5-.2.5-.6z"/></g></svg>