<?xml version="1.0" encoding="utf-8"?>
<!-- Generator: Adobe Illustrator 18.0.0, SVG Export Plug-In . SVG Version: 6.00 Build 0)  -->
<!DOCTYPE svg PUBLIC "-//W3C//DTD SVG 1.1//EN" "http://www.w3.org/Graphics/SVG/1.1/DTD/svg11.dtd">
<svg version="1.1" id="Layer_1" xmlns="http://www.w3.org/2000/svg" xmlns:xlink="http://www.w3.org/1999/xlink" x="0px" y="0px"
   viewBox="79 198 330 83" enable-background="new 79 198 330 83" xml:space="preserve">
<g id="Layer_3">
</g>
<g id="White">
</g>
<g id="Color">
  <g>
    <circle fill="#FFFFFF" cx="255.2" cy="239" r="32.3"/>
    <path fill="#22242B" d="M97.6,262.6c0,0.3,0.3,0.5,0.5,0.5h6.6c0.3,0,0.5-0.3,0.5-0.5v-34.2c0-0.3,0.3-0.5,0.5-0.5h6.1
      c0.3,0,0.5-0.3,0.5-0.5v-5.9c0-0.3-0.3-0.5-0.5-0.5h-20c-0.3,0-0.5,0.3-0.5,0.5v5.9c0,0.3,0.3,0.5,0.5,0.5H97
      c0.3,0,0.5,0.3,0.5,0.5V262.6z"/>
    <path fill="#22242B" d="M139.9,220.7c-0.5,0-0.9,0.3-0.7,0.9l6.6,18.9c0.2,0.5,0.2,1.4,0,1.9l-6.9,19.8c-0.2,0.5,0.2,0.9,0.7,0.9
      h5.6c0.5,0,1.2-0.3,1.4-0.9l3.6-11.1c0.2-0.5,0.5-0.5,0.7,0l3.5,11.1c0.2,0.5,0.7,0.9,1.2,0.9h6.1c0.5,0,0.9-0.3,0.7-0.9l-6.9-20
      c-0.2-0.5-0.2-1.4,0-1.9l6.6-18.9c0.2-0.5-0.2-0.9-0.7-0.9h-6.1c-0.5,0-1,0.3-1.2,0.9l-3,10.6c-0.2,0.5-0.3,0.5-0.5,0l-3.1-10.6
      c-0.2-0.5-0.7-0.9-1.2-0.9h-6.3V220.7z"/>
    <path fill="#22242B" d="M135.1,263.3c0.2,0,0.3-0.2,0.3-0.3v-6.2c0-0.2-0.2-0.3-0.3-0.3h-10.6c-0.2,0-0.3-0.2-0.3-0.3v-10.8
      c0-0.2,0.2-0.3,0.3-0.3h7.6c0.2,0,0.3-0.2,0.3-0.3v-6.3c0-0.2-0.2-0.3-0.3-0.3h-7.6c-0.2,0-0.3-0.2-0.3-0.3v-9.4
      c0-0.2,0.2-0.3,0.3-0.3h10.4c0.2,0,0.3-0.2,0.3-0.3v-6.1c0-0.2-0.2-0.3-0.3-0.3h-18.1c-0.2,0-0.3,0.2-0.3,0.3v41.7
      c0,0.2,0.2,0.3,0.3,0.3h18.2V263.3z"/>
    <g>
      <path fill="#22242B" d="M180.7,221.1c0-0.2-0.2-0.3-0.5-0.3H172c-0.2,0-0.3,0.2-0.5,0.3l-7.1,41.7c0,0.2,0.2,0.3,0.3,0.3h6.4
        c0.2,0,0.3-0.2,0.5-0.3l1.4-7.5c0-0.2,0.2-0.3,0.5-0.3h5.2c0.2,0,0.3,0.2,0.5,0.3l1.2,7.5c0,0.2,0.2,0.3,0.5,0.3h6.8
        c0.2,0,0.3-0.2,0.3-0.3L180.7,221.1z M174.7,247.8c-0.2,0-0.3-0.2-0.3-0.3l1.9-11.1c0-0.2,0.2-0.2,0.2,0l1.7,11.1
        c0,0.2-0.2,0.3-0.3,0.3H174.7z"/>
    </g>
    <path fill="#22242B" d="M191.1,248.3c0.2-0.2,0.5-0.2,0.5-0.2h6.1c0,0,0.2,0,0.3,0.2c0.2,0.2,0.2,0.5,0.2,0.5v5.9
      c0,0,0.7,2.3,3.3,2.3c4.5,0,3.1-5,2.6-6.4c0,0-0.5-1.7-6.8-7.8c-3.3-3.1-6.1-7.1-6.1-11.8c0-5.4,2.4-10.9,10.6-10.9
      c8.9,0,9.9,8.3,9.9,8.3l0.2,5.9c0,0,0,0.5,0,0.7c-0.2,0.2-0.5,0.2-0.5,0.2h-6.2c0,0-0.2,0-0.3-0.2c-0.2-0.2-0.2-0.5-0.2-0.5v-4.5
      c0,0-0.2-3-3-3c-3,0-3.6,4.3-1.7,6.9c2.1,2.8,3.6,4.3,7.1,7.5c5.4,5.2,5.4,9.2,5.4,12.5c0,4.2-3.6,9.9-10.2,9.9
      c-7.3,0-10.9-5.2-10.9-8.9c0-2.6-0.2-5-0.2-6.1C191,248.7,191.1,248.5,191.1,248.3z"/>
    <path fill="#22242B" d="M371.2,248.3c0.2-0.2,0.5-0.2,0.5-0.2h6.1c0,0,0.2,0,0.3,0.2c0.2,0.2,0.2,0.5,0.2,0.5v5.9
      c0,0,0.7,2.3,3.3,2.3c4.5,0,3.1-5,2.6-6.4c0,0-0.5-1.7-6.8-7.8c-3.3-3.1-6.1-7.1-6.1-11.8c0-5.4,2.4-10.9,10.6-10.9
      c8.9,0,9.9,8.3,9.9,8.3l0.2,5.9c0,0,0,0.5,0,0.7c-0.2,0.2-0.5,0.2-0.5,0.2h-6.3c0,0-0.2,0-0.3-0.2c-0.2-0.2-0.2-0.5-0.2-0.5v-4.5
      c0,0-0.2-3-2.8-3c-3,0-3.6,4.3-1.7,6.9c2.1,2.8,3.6,4.3,7.1,7.5c5.4,5.2,5.4,9.2,5.4,12.5c0,4.2-3.6,9.9-10.2,9.9
      c-7.3,0-10.9-5.2-10.9-8.9c0-2.6-0.2-5-0.2-6.1C371,248.7,371.2,248.5,371.2,248.3z"/>
    <g>
      <path fill="#22242B" d="M321.9,220.7c-0.5,0-0.9,0.3-0.7,0.9l6.6,18.9c0.2,0.5,0.2,1.4,0,1.9l-6.8,20c-0.2,0.5,0.2,0.9,0.7,0.9
        h5.6c0.5,0,1.2-0.3,1.4-0.9l3.6-11.1c0.2-0.5,0.5-0.5,0.7,0l3.5,11.1c0.2,0.5,0.7,0.9,1.2,0.9h6.1c0.5,0,0.9-0.3,0.7-0.9l-6.9-20
        c-0.2-0.5-0.2-1.4,0-1.9l6.6-18.9c0.2-0.5-0.2-0.9-0.7-0.9h-6.1c-0.5,0-1,0.3-1.2,0.9l-3,10.6c-0.2,0.5-0.3,0.5-0.5,0l-3.1-10.6
        c-0.2-0.5-0.7-0.9-1.2-0.9H321.9z"/>
      <path fill="#22242B" d="M316.7,263.3c0.2,0,0.3-0.2,0.3-0.3v-6.1c0-0.2-0.2-0.3-0.3-0.3h-10.6c-0.2,0-0.3-0.2-0.3-0.3v-10.8
        c0-0.2,0.2-0.3,0.3-0.3h7.6c0.2,0,0.3-0.2,0.3-0.3v-6.3c0-0.2-0.2-0.3-0.3-0.3h-7.6c-0.2,0-0.3-0.2-0.3-0.3v-9.4
        c0-0.2,0.2-0.3,0.3-0.3h10.4c0.2,0,0.3-0.2,0.3-0.3v-6.1c0-0.2-0.2-0.3-0.3-0.3h-18.1c-0.2,0-0.3,0.2-0.3,0.3v41.7
        c0,0.2,0.2,0.3,0.3,0.3h18.2V263.3z"/>
      <path fill="#22242B" d="M367.4,263.3c0.2,0,0.3-0.2,0.3-0.3v-6.1c0-0.2-0.2-0.3-0.3-0.3h-10.6c-0.2,0-0.3-0.2-0.3-0.3v-10.8
        c0-0.2,0.2-0.3,0.3-0.3h7.6c0.2,0,0.3-0.2,0.3-0.3v-6.3c0-0.2-0.2-0.3-0.3-0.3h-7.6c-0.2,0-0.3-0.2-0.3-0.3v-9.4
        c0-0.2,0.2-0.3,0.3-0.3h10.4c0.2,0,0.3-0.2,0.3-0.3v-6.1c0-0.2-0.2-0.3-0.3-0.3H349c-0.2,0-0.3,0.2-0.3,0.3v41.7
        c0,0.2,0.2,0.3,0.3,0.3h18.4V263.3z"/>
    </g>
    <g>
      <path fill="#CB6015" d="M255.2,209.6c-16.3,0-29.3,13.2-29.3,29.3c0,16.3,13.2,29.3,29.3,29.3c16.1,0,29.3-13.2,29.3-29.3
        C284.7,222.7,271.5,209.6,255.2,209.6z M269.6,233.4l-2.4,6.4c0,0.2,0,0.5,0,0.7l2.4,6.2c0,0.2,0.2,0.3,0.3,0.5l0.2,0.2
        c0.2,0.2,0.2,0.2,0,0.2h-2.8c-0.2,0-0.3-0.2-0.5-0.3l-1.4-3.8c0-0.2-0.2-0.2-0.2,0l-1.4,3.8c0,0.2-0.3,0.3-0.5,0.3h-2.1
        c-0.2,0-0.3-0.2-0.2-0.3l2.4-6.8c0-0.2,0-0.5,0-0.7l-2.4-6.4c0-0.2,0-0.3,0.2-0.3h2.3c0.2,0,0.3,0.2,0.5,0.3l1.2,3.6
        c0,0.2,0.2,0.2,0.2,0l1.2-3.6c0-0.2,0.2-0.3,0.5-0.3h2.3C269.6,233.1,269.8,233.2,269.6,233.4z M243.9,219.2h22.9
        c0.3,0,0.7,0.3,0.7,0.7l-0.3,4c0,0.3-0.3,0.7-0.9,0.7h-7.6c-0.3,0-0.7,0.3-0.7,0.7V251c0,0.3,0.2,1,0.3,1.4l0.5,1
        c0.2,0.3,0,0.7-0.5,0.7h-6.6c-0.3,0-0.7-0.3-0.5-0.7l0.5-1c0.2-0.3,0.3-1,0.3-1.4v-25.5c0-0.3-0.3-0.7-0.7-0.7h-7.1
        c-0.3,0-0.7-0.3-0.7-0.7l-0.2-4C243.1,219.5,243.4,219.2,243.9,219.2z M241,233.1h6.8c0,0,0.2,0,0.2,0.2v2.3c0,0,0,0.2-0.2,0.2
        h-3.5c0,0-0.2,0-0.2,0.2v3c0,0,0,0.2,0.2,0.2h2.6c0,0,0.2,0,0.2,0.2v2.4c0,0,0,0.2-0.2,0.2h-2.6c0,0-0.2,0-0.2,0.2v3.1
        c0,0,0,0.2,0.2,0.2h3.6c0,0,0.2,0,0.2,0.2v2.4c0,0,0,0.2-0.2,0.2h-6.6c0,0-0.2,0-0.2-0.2v-13.7v-0.2L241,233.1L241,233.1z
         M267.9,259.6c-3.8,2.4-8.2,3.6-12.7,3.6H255c-4.5,0-9-1.2-12.7-3.6c-3.8-2.4-6.9-5.9-9-10.1c-2.1-4.2-2.8-8.9-2.1-13.2
        c0.3-2.3,0.9-4.3,1.9-6.4c0.5-1,1-2.1,1.6-3c0.3-0.3,0.2-1,0.2-1.7c-0.2-0.9-0.2-1.7,0.7-2.3c0.9-0.5,2.4,0,3.6,1.2
        c0.7,0.9,1.2,1.7,1.2,2.6c0,0.5-0.3,1-0.5,1.4c-1.7,2.4-3,5.6-3.3,8.7c-0.2,1.7-0.2,3.5,0.2,5.2c0.3,1.7,0.9,3.5,1.6,5
        c1.6,3.1,4,5.9,6.9,7.6c3,1.9,6.3,2.8,9.7,2.8h0.2c3.5,0,6.9-1,9.7-2.8c3-1.7,5.4-4.5,6.9-7.6c0.7-1.6,1.2-3.3,1.6-5
        c0.3-1.7,0.3-3.5,0.2-5.2c-0.3-3.3-1.6-6.3-3.3-8.7c-0.2-0.3-0.5-0.9-0.5-1.4c0-0.9,0.5-1.9,1.2-2.6c1-1,2.4-1.6,3.5-1.2
        c0.9,0.3,0.7,1.4,0.7,2.3c0,0.7-0.2,1.2,0.2,1.7c0.7,0.9,1.2,1.9,1.6,3c1,2.1,1.6,4.2,1.9,6.4c0.7,4.3-0.2,9-2.1,13.2
        C274.8,253.7,271.7,257.2,267.9,259.6z"/>
      <path fill="#CB6015" d="M255.2,205.6c-18.4,0-33.3,14.9-33.3,33.3s14.9,33.3,33.3,33.3c18.4,0,33.3-14.9,33.3-33.3
        S273.6,205.6,255.2,205.6z M255.2,269.9c-17,0-31.1-13.9-31.1-31.1c0-17,13.9-31.1,31.1-31.1c17,0,30.9,13.9,30.9,31.1
        C286.3,256,272.4,269.9,255.2,269.9z"/>
    </g>
    <g>
      <path fill="#22242B" d="M397.6,226c-1.7,0-3.1-1.4-3.1-3.1c0-1.7,1.4-3.1,3.1-3.1s3.1,1.4,3.1,3.1
        C400.7,224.6,399.3,226,397.6,226z M397.6,220.2c-1.6,0-2.6,1.2-2.6,2.6c0,1.4,1,2.6,2.6,2.6s2.6-1.2,2.6-2.6
        C400,221.4,399,220.2,397.6,220.2z M398.6,224.4c-0.3,0-0.5-0.2-0.5-0.5v-0.3c0-0.2-0.2-0.5-0.5-0.5h-0.7v1.2h-0.5v-3.1h1.4
        c0.7,0,1,0.3,1,0.9l0,0c0,0.3-0.2,0.5-0.5,0.7c0.3,0,0.5,0.3,0.5,0.7v0.3c0,0.2,0,0.2,0.2,0.2v0.5L398.6,224.4L398.6,224.4z
         M397.9,222.1c0-0.2-0.2-0.3-0.3-0.3h-0.7v0.9h0.5C397.9,222.7,397.9,222.5,397.9,222.1L397.9,222.1z"/>
    </g>
  </g>
</g>
</svg>
