<svg xmlns="http://www.w3.org/2000/svg" width="32" height="32" viewBox="0 0 32 32"><path stroke="#449FDB" d="M0 0"/><path d="M24.674 21.91s3.33-2.28 3.33-6.772c0-6.688-7.088-9.16-10.9-9.095-3.81.067-4.947 1.07-4.947 1.07S10.86 6.17 9.485 5.38c-1.052-.41-1.296-.47-2.027-.234-.585 0-.217.974.018 1.325.233.352 1.366 2.29 1.366 2.29s-2.378 2.45-2.554 4.06c0-.03-1.12-.01-1.734-.01s-.556.67-.556.67l.017 4.714s-.038.67.52.67c.555 0 1.737.012 1.737.012S7.935 21.29 8.99 21.73c0 .03-.912 2.503-.912 2.503s-.44.76.35 1.054c.79.292 2.852 1.157 3.73 1.42s1.003-.333 1.003-.333l.87-1.877 5.685.01.87 1.934s.166.9 1.336.402c1.172-.497 2.45-1.087 3.416-1.584.965-.497.33-1.426.33-1.426l-.992-1.923zM9.322 13.763c-.533 0-.965-.433-.965-.966s.432-.965.965-.965.966.432.966.965-.433.966-.966.966zm13.603-3.008c-.308.365-.51.096-.757.023 0 0-1.05-.976-2.595-1.43-1.6-.47-3.282-.244-3.282-.244-.247-.073-.548-.08-.55-.464.013-.473.587-.477.58-.493 0 0 1.894-.176 3.48.29 1.558.458 2.75 1.454 2.75 1.454s.636.44.375.862z" fill="#227178"/></svg>